<mxfile host="app.diagrams.net" modified="2023-02-13T07:35:41.536Z" agent="5.0 (Macintosh)" version="20.6.2" etag="5Txd03NbrDRggmvEGJH7" type="github">
  <diagram id="YdTPJb5UWJcWr6Y335Vw" name="Page-1">
    <mxGraphModel dx="2163" dy="1056" grid="1" gridSize="10" guides="1" tooltips="1" connect="1" arrows="1" fold="1" page="1" pageScale="1" pageWidth="850" pageHeight="1100" math="0" shadow="0">
      <root>
        <mxCell id="0" />
        <mxCell id="1" parent="0" />
        <mxCell id="A9x_XRPvzb_1saYjgbG5-6" style="edgeStyle=orthogonalEdgeStyle;rounded=0;orthogonalLoop=1;jettySize=auto;html=1;exitX=0.5;exitY=1;exitDx=0;exitDy=0;entryX=0.25;entryY=0;entryDx=0;entryDy=0;" edge="1" parent="1" source="A9x_XRPvzb_1saYjgbG5-1" target="A9x_XRPvzb_1saYjgbG5-4">
          <mxGeometry relative="1" as="geometry" />
        </mxCell>
        <mxCell id="A9x_XRPvzb_1saYjgbG5-1" value="end device" style="rounded=1;whiteSpace=wrap;html=1;" vertex="1" parent="1">
          <mxGeometry x="60" y="20" width="120" height="60" as="geometry" />
        </mxCell>
        <mxCell id="A9x_XRPvzb_1saYjgbG5-2" value="end device" style="rounded=1;whiteSpace=wrap;html=1;" vertex="1" parent="1">
          <mxGeometry x="335" y="20" width="120" height="60" as="geometry" />
        </mxCell>
        <mxCell id="A9x_XRPvzb_1saYjgbG5-10" style="edgeStyle=orthogonalEdgeStyle;rounded=0;orthogonalLoop=1;jettySize=auto;html=1;exitX=0.5;exitY=1;exitDx=0;exitDy=0;entryX=0.894;entryY=-0.083;entryDx=0;entryDy=0;entryPerimeter=0;" edge="1" parent="1" source="A9x_XRPvzb_1saYjgbG5-3" target="A9x_XRPvzb_1saYjgbG5-4">
          <mxGeometry relative="1" as="geometry" />
        </mxCell>
        <mxCell id="A9x_XRPvzb_1saYjgbG5-3" value="end device" style="rounded=1;whiteSpace=wrap;html=1;" vertex="1" parent="1">
          <mxGeometry x="580" y="20" width="120" height="60" as="geometry" />
        </mxCell>
        <mxCell id="A9x_XRPvzb_1saYjgbG5-4" value="LoRaWAN Gateway" style="rounded=1;whiteSpace=wrap;html=1;" vertex="1" parent="1">
          <mxGeometry x="213" y="172" width="350" height="60" as="geometry" />
        </mxCell>
        <mxCell id="A9x_XRPvzb_1saYjgbG5-11" value="" style="endArrow=classic;html=1;rounded=0;" edge="1" parent="1">
          <mxGeometry width="50" height="50" relative="1" as="geometry">
            <mxPoint x="400" y="80" as="sourcePoint" />
            <mxPoint x="399.5" y="180" as="targetPoint" />
            <Array as="points" />
          </mxGeometry>
        </mxCell>
        <mxCell id="A9x_XRPvzb_1saYjgbG5-35" style="edgeStyle=orthogonalEdgeStyle;rounded=0;orthogonalLoop=1;jettySize=auto;html=1;exitX=0.5;exitY=1;exitDx=0;exitDy=0;fontSize=14;" edge="1" parent="1" source="A9x_XRPvzb_1saYjgbG5-13" target="A9x_XRPvzb_1saYjgbG5-19">
          <mxGeometry relative="1" as="geometry" />
        </mxCell>
        <mxCell id="A9x_XRPvzb_1saYjgbG5-130" value="" style="edgeStyle=orthogonalEdgeStyle;rounded=0;orthogonalLoop=1;jettySize=auto;html=1;fontSize=18;" edge="1" parent="1" source="A9x_XRPvzb_1saYjgbG5-13" target="A9x_XRPvzb_1saYjgbG5-129">
          <mxGeometry relative="1" as="geometry" />
        </mxCell>
        <mxCell id="A9x_XRPvzb_1saYjgbG5-13" value="&lt;br&gt;Grafana..." style="rounded=1;whiteSpace=wrap;html=1;" vertex="1" parent="1">
          <mxGeometry x="250" y="280" width="283" height="60" as="geometry" />
        </mxCell>
        <mxCell id="A9x_XRPvzb_1saYjgbG5-36" style="edgeStyle=orthogonalEdgeStyle;rounded=0;orthogonalLoop=1;jettySize=auto;html=1;exitX=0.5;exitY=1;exitDx=0;exitDy=0;entryX=0.554;entryY=-0.01;entryDx=0;entryDy=0;entryPerimeter=0;fontSize=14;" edge="1" parent="1" source="A9x_XRPvzb_1saYjgbG5-19" target="A9x_XRPvzb_1saYjgbG5-34">
          <mxGeometry relative="1" as="geometry" />
        </mxCell>
        <mxCell id="A9x_XRPvzb_1saYjgbG5-19" value="&lt;font style=&quot;font-size: 18px;&quot;&gt;THINGSBOARD&lt;/font&gt;" style="rounded=1;whiteSpace=wrap;html=1;" vertex="1" parent="1">
          <mxGeometry x="98" y="440" width="580" height="60" as="geometry" />
        </mxCell>
        <mxCell id="A9x_XRPvzb_1saYjgbG5-23" value="" style="endArrow=classic;html=1;rounded=0;" edge="1" parent="1">
          <mxGeometry width="50" height="50" relative="1" as="geometry">
            <mxPoint x="387.5" y="225.98" as="sourcePoint" />
            <mxPoint x="388" y="300" as="targetPoint" />
          </mxGeometry>
        </mxCell>
        <mxCell id="A9x_XRPvzb_1saYjgbG5-24" value="HTTP, MQTT" style="text;html=1;align=center;verticalAlign=middle;resizable=0;points=[];autosize=1;strokeColor=none;fillColor=none;" vertex="1" parent="1">
          <mxGeometry x="355" y="130" width="90" height="30" as="geometry" />
        </mxCell>
        <mxCell id="A9x_XRPvzb_1saYjgbG5-25" value="Customer" style="ellipse;whiteSpace=wrap;html=1;aspect=fixed;" vertex="1" parent="1">
          <mxGeometry x="720" y="650" width="60" height="60" as="geometry" />
        </mxCell>
        <mxCell id="A9x_XRPvzb_1saYjgbG5-26" value="Customer" style="ellipse;whiteSpace=wrap;html=1;aspect=fixed;" vertex="1" parent="1">
          <mxGeometry x="720" y="570" width="60" height="60" as="geometry" />
        </mxCell>
        <mxCell id="A9x_XRPvzb_1saYjgbG5-29" style="edgeStyle=orthogonalEdgeStyle;rounded=0;orthogonalLoop=1;jettySize=auto;html=1;entryX=0.5;entryY=0;entryDx=0;entryDy=0;" edge="1" parent="1" source="A9x_XRPvzb_1saYjgbG5-27" target="A9x_XRPvzb_1saYjgbG5-28">
          <mxGeometry relative="1" as="geometry" />
        </mxCell>
        <mxCell id="A9x_XRPvzb_1saYjgbG5-38" style="edgeStyle=orthogonalEdgeStyle;rounded=0;orthogonalLoop=1;jettySize=auto;html=1;entryX=0.673;entryY=0.025;entryDx=0;entryDy=0;entryPerimeter=0;fontSize=14;" edge="1" parent="1" source="A9x_XRPvzb_1saYjgbG5-27" target="A9x_XRPvzb_1saYjgbG5-30">
          <mxGeometry relative="1" as="geometry" />
        </mxCell>
        <mxCell id="A9x_XRPvzb_1saYjgbG5-43" style="edgeStyle=orthogonalEdgeStyle;rounded=0;orthogonalLoop=1;jettySize=auto;html=1;fontSize=14;entryX=-0.033;entryY=0.633;entryDx=0;entryDy=0;entryPerimeter=0;" edge="1" parent="1" source="A9x_XRPvzb_1saYjgbG5-27" target="A9x_XRPvzb_1saYjgbG5-26">
          <mxGeometry relative="1" as="geometry">
            <mxPoint x="710" y="630" as="targetPoint" />
            <Array as="points">
              <mxPoint x="710" y="670" />
              <mxPoint x="710" y="608" />
            </Array>
          </mxGeometry>
        </mxCell>
        <mxCell id="A9x_XRPvzb_1saYjgbG5-46" style="edgeStyle=orthogonalEdgeStyle;rounded=0;orthogonalLoop=1;jettySize=auto;html=1;entryX=0;entryY=1;entryDx=0;entryDy=0;fontSize=14;" edge="1" parent="1" source="A9x_XRPvzb_1saYjgbG5-27" target="A9x_XRPvzb_1saYjgbG5-25">
          <mxGeometry relative="1" as="geometry">
            <Array as="points">
              <mxPoint x="605" y="670" />
              <mxPoint x="605" y="701" />
            </Array>
          </mxGeometry>
        </mxCell>
        <mxCell id="A9x_XRPvzb_1saYjgbG5-47" style="edgeStyle=orthogonalEdgeStyle;rounded=0;orthogonalLoop=1;jettySize=auto;html=1;entryX=0;entryY=0.75;entryDx=0;entryDy=0;fontSize=14;" edge="1" parent="1" source="A9x_XRPvzb_1saYjgbG5-27" target="A9x_XRPvzb_1saYjgbG5-41">
          <mxGeometry relative="1" as="geometry" />
        </mxCell>
        <mxCell id="A9x_XRPvzb_1saYjgbG5-52" style="edgeStyle=orthogonalEdgeStyle;rounded=0;orthogonalLoop=1;jettySize=auto;html=1;entryX=0.394;entryY=0;entryDx=0;entryDy=0;entryPerimeter=0;fontSize=14;" edge="1" parent="1" source="A9x_XRPvzb_1saYjgbG5-27" target="A9x_XRPvzb_1saYjgbG5-50">
          <mxGeometry relative="1" as="geometry" />
        </mxCell>
        <mxCell id="A9x_XRPvzb_1saYjgbG5-27" value="Entity groups" style="rounded=0;whiteSpace=wrap;html=1;" vertex="1" parent="1">
          <mxGeometry x="250" y="640" width="240" height="60" as="geometry" />
        </mxCell>
        <mxCell id="A9x_XRPvzb_1saYjgbG5-40" style="edgeStyle=orthogonalEdgeStyle;rounded=0;orthogonalLoop=1;jettySize=auto;html=1;exitX=0.5;exitY=1;exitDx=0;exitDy=0;fontSize=14;" edge="1" parent="1" source="A9x_XRPvzb_1saYjgbG5-28" target="A9x_XRPvzb_1saYjgbG5-39">
          <mxGeometry relative="1" as="geometry" />
        </mxCell>
        <mxCell id="A9x_XRPvzb_1saYjgbG5-28" value="Devices group" style="rounded=0;whiteSpace=wrap;html=1;" vertex="1" parent="1">
          <mxGeometry x="30" y="760" width="120" height="40" as="geometry" />
        </mxCell>
        <mxCell id="A9x_XRPvzb_1saYjgbG5-55" value="" style="edgeStyle=orthogonalEdgeStyle;rounded=0;orthogonalLoop=1;jettySize=auto;html=1;fontSize=14;" edge="1" parent="1" source="A9x_XRPvzb_1saYjgbG5-30" target="A9x_XRPvzb_1saYjgbG5-53">
          <mxGeometry relative="1" as="geometry">
            <Array as="points">
              <mxPoint x="227" y="800" />
              <mxPoint x="227" y="800" />
            </Array>
          </mxGeometry>
        </mxCell>
        <mxCell id="A9x_XRPvzb_1saYjgbG5-30" value="Assets group" style="rounded=0;whiteSpace=wrap;html=1;" vertex="1" parent="1">
          <mxGeometry x="170" y="760" width="113" height="40" as="geometry" />
        </mxCell>
        <mxCell id="A9x_XRPvzb_1saYjgbG5-37" style="edgeStyle=orthogonalEdgeStyle;rounded=0;orthogonalLoop=1;jettySize=auto;html=1;entryX=0.552;entryY=0;entryDx=0;entryDy=0;entryPerimeter=0;fontSize=14;" edge="1" parent="1" source="A9x_XRPvzb_1saYjgbG5-34" target="A9x_XRPvzb_1saYjgbG5-27">
          <mxGeometry relative="1" as="geometry" />
        </mxCell>
        <mxCell id="A9x_XRPvzb_1saYjgbG5-34" value="&lt;div&gt;&lt;b&gt;&lt;font style=&quot;font-size: 14px;&quot;&gt;TENANT_OWNER&lt;/font&gt;&lt;/b&gt;&lt;br&gt;&lt;/div&gt;&lt;div&gt;&lt;br&gt;&lt;/div&gt;" style="rounded=0;whiteSpace=wrap;html=1;" vertex="1" parent="1">
          <mxGeometry x="115" y="510" width="500" height="100" as="geometry" />
        </mxCell>
        <mxCell id="A9x_XRPvzb_1saYjgbG5-39" value="Devices..." style="rounded=0;whiteSpace=wrap;html=1;fontSize=14;" vertex="1" parent="1">
          <mxGeometry x="30" y="820" width="120" height="40" as="geometry" />
        </mxCell>
        <mxCell id="A9x_XRPvzb_1saYjgbG5-49" value="" style="edgeStyle=orthogonalEdgeStyle;rounded=0;orthogonalLoop=1;jettySize=auto;html=1;fontSize=14;" edge="1" parent="1" source="A9x_XRPvzb_1saYjgbG5-41" target="A9x_XRPvzb_1saYjgbG5-48">
          <mxGeometry relative="1" as="geometry" />
        </mxCell>
        <mxCell id="A9x_XRPvzb_1saYjgbG5-41" value="users group" style="whiteSpace=wrap;html=1;rounded=0;fontSize=14;" vertex="1" parent="1">
          <mxGeometry x="570" y="730" width="120" height="40" as="geometry" />
        </mxCell>
        <mxCell id="A9x_XRPvzb_1saYjgbG5-48" value="user 1&lt;br&gt;.......&lt;br&gt;........." style="whiteSpace=wrap;html=1;rounded=0;fontSize=14;" vertex="1" parent="1">
          <mxGeometry x="730" y="730" width="60" height="70" as="geometry" />
        </mxCell>
        <mxCell id="A9x_XRPvzb_1saYjgbG5-56" value="" style="edgeStyle=orthogonalEdgeStyle;rounded=0;orthogonalLoop=1;jettySize=auto;html=1;fontSize=14;entryX=0.5;entryY=0;entryDx=0;entryDy=0;" edge="1" parent="1" target="A9x_XRPvzb_1saYjgbG5-54">
          <mxGeometry relative="1" as="geometry">
            <mxPoint x="388" y="800" as="sourcePoint" />
          </mxGeometry>
        </mxCell>
        <mxCell id="A9x_XRPvzb_1saYjgbG5-50" value="Dashboards group" style="rounded=0;whiteSpace=wrap;html=1;" vertex="1" parent="1">
          <mxGeometry x="312" y="760" width="113" height="40" as="geometry" />
        </mxCell>
        <mxCell id="A9x_XRPvzb_1saYjgbG5-53" value="Assets..." style="rounded=0;whiteSpace=wrap;html=1;fontSize=14;" vertex="1" parent="1">
          <mxGeometry x="163" y="820" width="120" height="40" as="geometry" />
        </mxCell>
        <mxCell id="A9x_XRPvzb_1saYjgbG5-54" value="Dashboards..." style="rounded=0;whiteSpace=wrap;html=1;fontSize=14;" vertex="1" parent="1">
          <mxGeometry x="305" y="820" width="120" height="40" as="geometry" />
        </mxCell>
        <mxCell id="A9x_XRPvzb_1saYjgbG5-57" value="Root rule-chain" style="rounded=0;whiteSpace=wrap;html=1;fontSize=14;" vertex="1" parent="1">
          <mxGeometry x="1325" y="460" width="520" height="60" as="geometry" />
        </mxCell>
        <mxCell id="A9x_XRPvzb_1saYjgbG5-58" value="&lt;font style=&quot;font-size: 18px;&quot;&gt;&lt;b&gt;RELATION&lt;/b&gt;&lt;/font&gt;" style="text;html=1;align=center;verticalAlign=middle;resizable=0;points=[];autosize=1;strokeColor=none;fillColor=none;fontSize=14;" vertex="1" parent="1">
          <mxGeometry x="1520" y="570" width="110" height="40" as="geometry" />
        </mxCell>
        <mxCell id="A9x_XRPvzb_1saYjgbG5-61" value="" style="edgeStyle=orthogonalEdgeStyle;rounded=0;orthogonalLoop=1;jettySize=auto;html=1;fontSize=18;" edge="1" parent="1" source="A9x_XRPvzb_1saYjgbG5-59" target="A9x_XRPvzb_1saYjgbG5-60">
          <mxGeometry relative="1" as="geometry">
            <Array as="points">
              <mxPoint x="1560" y="640" />
              <mxPoint x="1560" y="640" />
            </Array>
          </mxGeometry>
        </mxCell>
        <mxCell id="A9x_XRPvzb_1saYjgbG5-67" style="edgeStyle=orthogonalEdgeStyle;rounded=0;orthogonalLoop=1;jettySize=auto;html=1;entryX=0.205;entryY=-0.012;entryDx=0;entryDy=0;entryPerimeter=0;fontSize=18;" edge="1" parent="1" source="A9x_XRPvzb_1saYjgbG5-59" target="A9x_XRPvzb_1saYjgbG5-66">
          <mxGeometry relative="1" as="geometry" />
        </mxCell>
        <mxCell id="A9x_XRPvzb_1saYjgbG5-59" value="device" style="rounded=0;whiteSpace=wrap;html=1;fontSize=18;" vertex="1" parent="1">
          <mxGeometry x="1380" y="620" width="130" height="60" as="geometry" />
        </mxCell>
        <mxCell id="A9x_XRPvzb_1saYjgbG5-68" style="edgeStyle=orthogonalEdgeStyle;rounded=0;orthogonalLoop=1;jettySize=auto;html=1;fontSize=18;" edge="1" parent="1" source="A9x_XRPvzb_1saYjgbG5-60" target="A9x_XRPvzb_1saYjgbG5-66">
          <mxGeometry relative="1" as="geometry" />
        </mxCell>
        <mxCell id="A9x_XRPvzb_1saYjgbG5-60" value="asset" style="rounded=0;whiteSpace=wrap;html=1;fontSize=18;" vertex="1" parent="1">
          <mxGeometry x="1650" y="620" width="130" height="60" as="geometry" />
        </mxCell>
        <mxCell id="A9x_XRPvzb_1saYjgbG5-62" value="duplicate" style="text;html=1;align=center;verticalAlign=middle;resizable=0;points=[];autosize=1;strokeColor=none;fillColor=none;fontSize=18;" vertex="1" parent="1">
          <mxGeometry x="1530" y="600" width="100" height="40" as="geometry" />
        </mxCell>
        <mxCell id="A9x_XRPvzb_1saYjgbG5-64" value="" style="endArrow=classic;html=1;rounded=0;fontSize=18;" edge="1" parent="1">
          <mxGeometry width="50" height="50" relative="1" as="geometry">
            <mxPoint x="1330" y="580" as="sourcePoint" />
            <mxPoint x="1380" y="660" as="targetPoint" />
            <Array as="points">
              <mxPoint x="1330" y="660" />
            </Array>
          </mxGeometry>
        </mxCell>
        <mxCell id="A9x_XRPvzb_1saYjgbG5-65" value="&lt;font style=&quot;font-size: 24px;&quot;&gt;Data&lt;/font&gt;" style="text;html=1;align=center;verticalAlign=middle;resizable=0;points=[];autosize=1;strokeColor=none;fillColor=none;fontSize=18;" vertex="1" parent="1">
          <mxGeometry x="1295" y="530" width="70" height="40" as="geometry" />
        </mxCell>
        <mxCell id="A9x_XRPvzb_1saYjgbG5-66" value="&lt;font style=&quot;font-size: 18px;&quot;&gt;to save in time-series;&lt;br&gt;to save in attributes&lt;br&gt;&lt;/font&gt;" style="rounded=0;whiteSpace=wrap;html=1;fontSize=24;" vertex="1" parent="1">
          <mxGeometry x="1500" y="720" width="210" height="80" as="geometry" />
        </mxCell>
        <mxCell id="A9x_XRPvzb_1saYjgbG5-69" value="" style="endArrow=classic;html=1;rounded=0;fontSize=18;" edge="1" parent="1">
          <mxGeometry width="50" height="50" relative="1" as="geometry">
            <mxPoint x="1650" y="669.5" as="sourcePoint" />
            <mxPoint x="1510" y="669.5" as="targetPoint" />
          </mxGeometry>
        </mxCell>
        <mxCell id="A9x_XRPvzb_1saYjgbG5-70" value="&lt;b&gt;Relation&lt;/b&gt; defines connection between two ThingsBoard entities that belong to the same &lt;a href=&quot;https://thingsboard.io/docs/user-guide/ui/tenants/&quot;&gt;Tenant&lt;/a&gt;" style="text;html=1;align=center;verticalAlign=middle;resizable=0;points=[];autosize=1;strokeColor=none;fillColor=none;fontSize=18;" vertex="1" parent="1">
          <mxGeometry x="1145" y="350" width="780" height="40" as="geometry" />
        </mxCell>
        <mxCell id="A9x_XRPvzb_1saYjgbG5-71" value="asset" style="whiteSpace=wrap;html=1;fontSize=18;" vertex="1" parent="1">
          <mxGeometry x="1440" y="880" width="120" height="60" as="geometry" />
        </mxCell>
        <mxCell id="A9x_XRPvzb_1saYjgbG5-96" style="edgeStyle=orthogonalEdgeStyle;rounded=0;orthogonalLoop=1;jettySize=auto;html=1;entryX=0.75;entryY=0;entryDx=0;entryDy=0;fontSize=18;exitX=0.25;exitY=1;exitDx=0;exitDy=0;" edge="1" parent="1" source="A9x_XRPvzb_1saYjgbG5-73" target="A9x_XRPvzb_1saYjgbG5-77">
          <mxGeometry relative="1" as="geometry" />
        </mxCell>
        <mxCell id="A9x_XRPvzb_1saYjgbG5-73" value="asset" style="whiteSpace=wrap;html=1;fontSize=18;" vertex="1" parent="1">
          <mxGeometry x="1355" y="950" width="120" height="60" as="geometry" />
        </mxCell>
        <mxCell id="A9x_XRPvzb_1saYjgbG5-74" value="asset" style="whiteSpace=wrap;html=1;fontSize=18;" vertex="1" parent="1">
          <mxGeometry x="1550" y="950" width="120" height="60" as="geometry" />
        </mxCell>
        <mxCell id="A9x_XRPvzb_1saYjgbG5-75" value="device" style="whiteSpace=wrap;html=1;fontSize=18;" vertex="1" parent="1">
          <mxGeometry x="1500" y="1040" width="120" height="60" as="geometry" />
        </mxCell>
        <mxCell id="A9x_XRPvzb_1saYjgbG5-76" value="device" style="whiteSpace=wrap;html=1;fontSize=18;" vertex="1" parent="1">
          <mxGeometry x="1640" y="1040" width="120" height="60" as="geometry" />
        </mxCell>
        <mxCell id="A9x_XRPvzb_1saYjgbG5-77" value="asset" style="whiteSpace=wrap;html=1;fontSize=18;" vertex="1" parent="1">
          <mxGeometry x="1290" y="1030" width="120" height="60" as="geometry" />
        </mxCell>
        <mxCell id="A9x_XRPvzb_1saYjgbG5-79" value="device" style="whiteSpace=wrap;html=1;fontSize=18;" vertex="1" parent="1">
          <mxGeometry x="1200" y="1110" width="120" height="60" as="geometry" />
        </mxCell>
        <mxCell id="A9x_XRPvzb_1saYjgbG5-115" value="" style="edgeStyle=orthogonalEdgeStyle;rounded=0;orthogonalLoop=1;jettySize=auto;html=1;fontSize=14;" edge="1" parent="1" source="A9x_XRPvzb_1saYjgbG5-80" target="A9x_XRPvzb_1saYjgbG5-79">
          <mxGeometry relative="1" as="geometry" />
        </mxCell>
        <mxCell id="A9x_XRPvzb_1saYjgbG5-80" value="device" style="whiteSpace=wrap;html=1;fontSize=18;" vertex="1" parent="1">
          <mxGeometry x="1420" y="1110" width="120" height="60" as="geometry" />
        </mxCell>
        <mxCell id="A9x_XRPvzb_1saYjgbG5-81" value="" style="endArrow=classic;html=1;rounded=0;fontSize=18;" edge="1" parent="1">
          <mxGeometry width="50" height="50" relative="1" as="geometry">
            <mxPoint x="1440" y="900" as="sourcePoint" />
            <mxPoint x="1420" y="950" as="targetPoint" />
          </mxGeometry>
        </mxCell>
        <mxCell id="A9x_XRPvzb_1saYjgbG5-87" value="" style="endArrow=classic;html=1;rounded=0;fontSize=18;" edge="1" parent="1">
          <mxGeometry width="50" height="50" relative="1" as="geometry">
            <mxPoint x="1560" y="900" as="sourcePoint" />
            <mxPoint x="1590" y="950" as="targetPoint" />
            <Array as="points">
              <mxPoint x="1580" y="930" />
            </Array>
          </mxGeometry>
        </mxCell>
        <mxCell id="A9x_XRPvzb_1saYjgbG5-88" value="Entity groups" style="rounded=0;whiteSpace=wrap;html=1;" vertex="1" parent="1">
          <mxGeometry x="810" y="510" width="100" height="60" as="geometry" />
        </mxCell>
        <mxCell id="A9x_XRPvzb_1saYjgbG5-89" value="" style="endArrow=classic;html=1;rounded=0;fontSize=18;" edge="1" parent="1" source="A9x_XRPvzb_1saYjgbG5-26">
          <mxGeometry width="50" height="50" relative="1" as="geometry">
            <mxPoint x="780" y="590" as="sourcePoint" />
            <mxPoint x="810" y="550" as="targetPoint" />
          </mxGeometry>
        </mxCell>
        <mxCell id="A9x_XRPvzb_1saYjgbG5-90" value="Devices group" style="rounded=0;whiteSpace=wrap;html=1;" vertex="1" parent="1">
          <mxGeometry x="845" y="440" width="120" height="40" as="geometry" />
        </mxCell>
        <mxCell id="A9x_XRPvzb_1saYjgbG5-91" value="Assets group" style="rounded=0;whiteSpace=wrap;html=1;" vertex="1" parent="1">
          <mxGeometry x="845" y="610" width="113" height="40" as="geometry" />
        </mxCell>
        <mxCell id="A9x_XRPvzb_1saYjgbG5-92" value="Dashboards group" style="rounded=0;whiteSpace=wrap;html=1;" vertex="1" parent="1">
          <mxGeometry x="940" y="510" width="113" height="40" as="geometry" />
        </mxCell>
        <mxCell id="A9x_XRPvzb_1saYjgbG5-93" value="" style="endArrow=classic;html=1;rounded=0;fontSize=18;exitX=0.65;exitY=-0.033;exitDx=0;exitDy=0;exitPerimeter=0;" edge="1" parent="1" source="A9x_XRPvzb_1saYjgbG5-88">
          <mxGeometry width="50" height="50" relative="1" as="geometry">
            <mxPoint x="865" y="520" as="sourcePoint" />
            <mxPoint x="910" y="480" as="targetPoint" />
          </mxGeometry>
        </mxCell>
        <mxCell id="A9x_XRPvzb_1saYjgbG5-94" value="" style="endArrow=classic;html=1;rounded=0;fontSize=18;entryX=0.425;entryY=0.025;entryDx=0;entryDy=0;entryPerimeter=0;" edge="1" parent="1" source="A9x_XRPvzb_1saYjgbG5-88" target="A9x_XRPvzb_1saYjgbG5-91">
          <mxGeometry width="50" height="50" relative="1" as="geometry">
            <mxPoint x="871.5" y="570" as="sourcePoint" />
            <mxPoint x="931.5" y="590" as="targetPoint" />
          </mxGeometry>
        </mxCell>
        <mxCell id="A9x_XRPvzb_1saYjgbG5-95" value="" style="endArrow=classic;html=1;rounded=0;fontSize=18;entryX=0;entryY=0.75;entryDx=0;entryDy=0;" edge="1" parent="1" target="A9x_XRPvzb_1saYjgbG5-92">
          <mxGeometry width="50" height="50" relative="1" as="geometry">
            <mxPoint x="910.0018032786886" y="539.5" as="sourcePoint" />
            <mxPoint x="953.76" y="539.5" as="targetPoint" />
          </mxGeometry>
        </mxCell>
        <mxCell id="A9x_XRPvzb_1saYjgbG5-100" value="" style="endArrow=classic;html=1;rounded=0;fontSize=18;" edge="1" parent="1">
          <mxGeometry width="50" height="50" relative="1" as="geometry">
            <mxPoint x="1570" y="1010" as="sourcePoint" />
            <mxPoint x="1570" y="1040" as="targetPoint" />
          </mxGeometry>
        </mxCell>
        <mxCell id="A9x_XRPvzb_1saYjgbG5-102" value="" style="endArrow=classic;html=1;rounded=0;fontSize=18;" edge="1" parent="1">
          <mxGeometry width="50" height="50" relative="1" as="geometry">
            <mxPoint x="1660" y="1010" as="sourcePoint" />
            <mxPoint x="1660" y="1040" as="targetPoint" />
          </mxGeometry>
        </mxCell>
        <mxCell id="A9x_XRPvzb_1saYjgbG5-103" value="" style="endArrow=classic;html=1;rounded=0;fontSize=18;" edge="1" parent="1">
          <mxGeometry width="50" height="50" relative="1" as="geometry">
            <mxPoint x="1325" y="1090" as="sourcePoint" />
            <mxPoint x="1325" y="1110" as="targetPoint" />
          </mxGeometry>
        </mxCell>
        <mxCell id="A9x_XRPvzb_1saYjgbG5-104" value="" style="endArrow=classic;html=1;rounded=0;fontSize=18;" edge="1" parent="1">
          <mxGeometry width="50" height="50" relative="1" as="geometry">
            <mxPoint x="1400" y="1090" as="sourcePoint" />
            <mxPoint x="1400" y="1110" as="targetPoint" />
          </mxGeometry>
        </mxCell>
        <mxCell id="A9x_XRPvzb_1saYjgbG5-108" value="&lt;div&gt;&lt;font style=&quot;font-size: 14px;&quot;&gt;data duplication&lt;/font&gt;&lt;/div&gt;&lt;div&gt;&lt;font size=&quot;3&quot;&gt;from device to asset&lt;br&gt;&lt;/font&gt;&lt;/div&gt;" style="text;html=1;align=center;verticalAlign=middle;resizable=0;points=[];autosize=1;strokeColor=#b85450;fillColor=#f8cecc;fontSize=18;" vertex="1" parent="1">
          <mxGeometry x="1060" y="1020" width="170" height="60" as="geometry" />
        </mxCell>
        <mxCell id="A9x_XRPvzb_1saYjgbG5-109" value="" style="shape=flexArrow;endArrow=classic;html=1;rounded=0;fontSize=18;fillColor=#f8cecc;strokeColor=#b85450;entryX=0;entryY=0.5;entryDx=0;entryDy=0;" edge="1" parent="1" target="A9x_XRPvzb_1saYjgbG5-77">
          <mxGeometry width="50" height="50" relative="1" as="geometry">
            <mxPoint x="1240" y="1100" as="sourcePoint" />
            <mxPoint x="1200" y="980" as="targetPoint" />
          </mxGeometry>
        </mxCell>
        <mxCell id="A9x_XRPvzb_1saYjgbG5-110" value="" style="shape=flexArrow;endArrow=classic;html=1;rounded=0;fontSize=18;fillColor=#f8cecc;strokeColor=#b85450;exitX=1.042;exitY=0.4;exitDx=0;exitDy=0;exitPerimeter=0;" edge="1" parent="1" source="A9x_XRPvzb_1saYjgbG5-74">
          <mxGeometry width="50" height="50" relative="1" as="geometry">
            <mxPoint x="1760.04" y="890" as="sourcePoint" />
            <mxPoint x="1760" y="1040" as="targetPoint" />
          </mxGeometry>
        </mxCell>
        <mxCell id="A9x_XRPvzb_1saYjgbG5-111" value="&lt;div&gt;&lt;font style=&quot;font-size: 14px;&quot;&gt;data duplication&lt;/font&gt;&lt;/div&gt;&lt;div&gt;&lt;font size=&quot;3&quot;&gt;from asset to device&lt;br&gt;&lt;/font&gt;&lt;/div&gt;" style="text;html=1;align=center;verticalAlign=middle;resizable=0;points=[];autosize=1;strokeColor=#b85450;fillColor=#f8cecc;fontSize=18;" vertex="1" parent="1">
          <mxGeometry x="1740" y="940" width="170" height="60" as="geometry" />
        </mxCell>
        <mxCell id="A9x_XRPvzb_1saYjgbG5-112" value="&lt;div&gt;&lt;font style=&quot;font-size: 14px;&quot;&gt;data duplication&lt;/font&gt;&lt;/div&gt;&lt;div&gt;&lt;font size=&quot;3&quot;&gt;from device to device&lt;br&gt;&lt;/font&gt;&lt;/div&gt;" style="text;html=1;align=center;verticalAlign=middle;resizable=0;points=[];autosize=1;strokeColor=#b85450;fillColor=#f8cecc;fontSize=18;" vertex="1" parent="1">
          <mxGeometry x="1280" y="1180" width="170" height="60" as="geometry" />
        </mxCell>
        <mxCell id="A9x_XRPvzb_1saYjgbG5-113" value="" style="shape=flexArrow;endArrow=classic;html=1;rounded=0;fontSize=18;fillColor=#f8cecc;strokeColor=#b85450;width=10;endSize=6;" edge="1" parent="1">
          <mxGeometry width="50" height="50" relative="1" as="geometry">
            <mxPoint x="1320" y="1139.5" as="sourcePoint" />
            <mxPoint x="1420" y="1139.5" as="targetPoint" />
            <Array as="points">
              <mxPoint x="1360" y="1139.5" />
            </Array>
          </mxGeometry>
        </mxCell>
        <mxCell id="A9x_XRPvzb_1saYjgbG5-114" value="sub rule-chain" style="rounded=1;whiteSpace=wrap;html=1;fontSize=14;" vertex="1" parent="1">
          <mxGeometry x="1960" y="520" width="120" height="60" as="geometry" />
        </mxCell>
        <mxCell id="A9x_XRPvzb_1saYjgbG5-116" value="" style="shape=flexArrow;endArrow=classic;html=1;rounded=0;fontSize=18;fillColor=#f8cecc;strokeColor=#b85450;width=10;endSize=6;exitX=0.962;exitY=1;exitDx=0;exitDy=0;exitPerimeter=0;entryX=0;entryY=0.75;entryDx=0;entryDy=0;" edge="1" parent="1" source="A9x_XRPvzb_1saYjgbG5-57" target="A9x_XRPvzb_1saYjgbG5-114">
          <mxGeometry width="50" height="50" relative="1" as="geometry">
            <mxPoint x="1830" y="569" as="sourcePoint" />
            <mxPoint x="1930" y="569" as="targetPoint" />
            <Array as="points">
              <mxPoint x="1825" y="569" />
            </Array>
          </mxGeometry>
        </mxCell>
        <mxCell id="A9x_XRPvzb_1saYjgbG5-117" value="data" style="text;html=1;align=center;verticalAlign=middle;resizable=0;points=[];autosize=1;strokeColor=none;fillColor=none;fontSize=14;" vertex="1" parent="1">
          <mxGeometry x="1860" y="580" width="50" height="30" as="geometry" />
        </mxCell>
        <mxCell id="A9x_XRPvzb_1saYjgbG5-118" value="" style="shape=flexArrow;endArrow=classic;html=1;rounded=0;fontSize=18;fillColor=#f8cecc;strokeColor=#b85450;width=10;endSize=6;exitX=0.158;exitY=-0.067;exitDx=0;exitDy=0;exitPerimeter=0;" edge="1" parent="1">
          <mxGeometry width="50" height="50" relative="1" as="geometry">
            <mxPoint x="1978.96" y="519.98" as="sourcePoint" />
            <mxPoint x="1840" y="484" as="targetPoint" />
            <Array as="points">
              <mxPoint x="1980" y="484" />
            </Array>
          </mxGeometry>
        </mxCell>
        <mxCell id="A9x_XRPvzb_1saYjgbG5-119" value="&lt;font style=&quot;font-size: 18px;&quot;&gt;&lt;br&gt;&lt;/font&gt;&lt;div&gt;&lt;font style=&quot;font-size: 18px;&quot;&gt;&amp;nbsp;&lt;font style=&quot;font-size: 18px;&quot;&gt;Customer&lt;/font&gt;- the customer is also a separate business-entity: individual or organization &lt;br&gt;&lt;/font&gt;&lt;/div&gt;&lt;div&gt;&lt;font style=&quot;font-size: 18px;&quot;&gt;who purchase or uses tenant devices and/or assets;&lt;/font&gt;&lt;/div&gt;" style="text;html=1;align=left;verticalAlign=middle;resizable=0;points=[];autosize=1;strokeColor=none;fillColor=none;fontSize=14;" vertex="1" parent="1">
          <mxGeometry x="20" y="950" width="700" height="80" as="geometry" />
        </mxCell>
        <mxCell id="A9x_XRPvzb_1saYjgbG5-120" value="&lt;div&gt;Tenant &lt;font style=&quot;font-size: 18px;&quot;&gt;is a separate business-entity: an individual, or an organization that owns or produces devices and assets&lt;/font&gt;&lt;/div&gt;" style="text;html=1;align=center;verticalAlign=middle;resizable=0;points=[];autosize=1;strokeColor=none;fillColor=none;fontSize=18;" vertex="1" parent="1">
          <mxGeometry x="10" y="930" width="920" height="40" as="geometry" />
        </mxCell>
        <mxCell id="A9x_XRPvzb_1saYjgbG5-121" value="User - every user can have own access and different rights." style="text;html=1;align=center;verticalAlign=middle;resizable=0;points=[];autosize=1;strokeColor=none;fillColor=none;fontSize=18;" vertex="1" parent="1">
          <mxGeometry x="10" y="1040" width="500" height="40" as="geometry" />
        </mxCell>
        <mxCell id="A9x_XRPvzb_1saYjgbG5-122" value="Rule-chains Alarms" style="rounded=0;whiteSpace=wrap;html=1;fontSize=14;" vertex="1" parent="1">
          <mxGeometry x="443" y="790" width="120" height="60" as="geometry" />
        </mxCell>
        <mxCell id="A9x_XRPvzb_1saYjgbG5-123" value="" style="endArrow=classic;html=1;rounded=0;fontSize=18;" edge="1" parent="1">
          <mxGeometry width="50" height="50" relative="1" as="geometry">
            <mxPoint x="443" y="700" as="sourcePoint" />
            <mxPoint x="473" y="790" as="targetPoint" />
          </mxGeometry>
        </mxCell>
        <mxCell id="A9x_XRPvzb_1saYjgbG5-125" value="&lt;p&gt;Rule Engine Message is a serializable, immutable data structure that represent various messages in the system. (&lt;/p&gt;&lt;div align=&quot;left&quot;&gt;&lt;ul&gt;&lt;li&gt;Incoming telemetry, attribute update or RPC call from device;&lt;br&gt;&lt;/li&gt;&lt;li&gt;Entity life-cycle event: created, updated, deleted, assigned, unassigned, attributes updated;&lt;br&gt;&lt;/li&gt;&lt;li&gt;Device status event: connected, disconnected, active, inactive, etc;&lt;br&gt;&lt;/li&gt;&lt;li&gt;Other system events.&lt;/li&gt;&lt;/ul&gt;&lt;/div&gt;" style="text;html=1;align=center;verticalAlign=middle;resizable=0;points=[];autosize=1;strokeColor=none;fillColor=none;fontSize=18;" vertex="1" parent="1">
          <mxGeometry x="5" y="1050" width="930" height="190" as="geometry" />
        </mxCell>
        <mxCell id="A9x_XRPvzb_1saYjgbG5-129" value="Chirpstack" style="strokeWidth=2;html=1;shape=mxgraph.flowchart.database;whiteSpace=wrap;fontSize=18;" vertex="1" parent="1">
          <mxGeometry x="120" y="280" width="60" height="60" as="geometry" />
        </mxCell>
        <mxCell id="A9x_XRPvzb_1saYjgbG5-132" value="&lt;div&gt;grafana&lt;/div&gt;&lt;div&gt;&lt;br&gt;&lt;/div&gt;" style="text;html=1;align=center;verticalAlign=middle;resizable=0;points=[];autosize=1;strokeColor=none;fillColor=none;fontSize=18;" vertex="1" parent="1">
          <mxGeometry x="150" y="360" width="80" height="60" as="geometry" />
        </mxCell>
        <mxCell id="A9x_XRPvzb_1saYjgbG5-133" value="&lt;div&gt;device profile&lt;/div&gt;&lt;div&gt;&lt;br&gt;&lt;/div&gt;" style="text;html=1;align=center;verticalAlign=middle;resizable=0;points=[];autosize=1;strokeColor=none;fillColor=none;fontSize=18;" vertex="1" parent="1">
          <mxGeometry x="735" y="840" width="130" height="60" as="geometry" />
        </mxCell>
      </root>
    </mxGraphModel>
  </diagram>
</mxfile>
